<svg viewBox="0 0 100 100" xmlns="http://www.w3.org/2000/svg">
  <!-- 正二十面体静态版 - 斜上方视角 -->
  <!-- 使用 currentColor 继承父元素颜色 -->

  <!-- 背面棱 - 浅色 -->
  <line x1="50" y1="13" x2="73" y2="28" stroke="currentColor" stroke-width="2" opacity="0.25"/>
  <line x1="73" y1="28" x2="80" y2="55" stroke="currentColor" stroke-width="2" opacity="0.25"/>
  <line x1="73" y1="28" x2="58" y2="50" stroke="currentColor" stroke-width="2" opacity="0.25"/>
  <line x1="80" y1="55" x2="65" y2="78" stroke="currentColor" stroke-width="2" opacity="0.25"/>
  <line x1="58" y1="50" x2="80" y2="55" stroke="currentColor" stroke-width="2" opacity="0.25"/>
  <line x1="58" y1="50" x2="65" y2="78" stroke="currentColor" stroke-width="2" opacity="0.25"/>

  <!-- 正面棱 - 实线 -->
  <line x1="50" y1="13" x2="27" y2="28" stroke="currentColor" stroke-width="2"/>
  <line x1="50" y1="13" x2="42" y2="38" stroke="currentColor" stroke-width="2"/>
  <line x1="27" y1="28" x2="20" y2="55" stroke="currentColor" stroke-width="2"/>
  <line x1="27" y1="28" x2="42" y2="38" stroke="currentColor" stroke-width="2"/>
  <line x1="42" y1="38" x2="20" y2="55" stroke="currentColor" stroke-width="2"/>
  <line x1="42" y1="38" x2="35" y2="65" stroke="currentColor" stroke-width="2"/>
  <line x1="42" y1="38" x2="58" y2="50" stroke="currentColor" stroke-width="2"/>
  <line x1="20" y1="55" x2="35" y2="78" stroke="currentColor" stroke-width="2"/>
  <line x1="20" y1="55" x2="35" y2="65" stroke="currentColor" stroke-width="2"/>
  <line x1="35" y1="65" x2="35" y2="78" stroke="currentColor" stroke-width="2"/>
  <line x1="35" y1="65" x2="58" y2="50" stroke="currentColor" stroke-width="2"/>
  <line x1="35" y1="65" x2="50" y2="87" stroke="currentColor" stroke-width="2"/>
  <line x1="35" y1="78" x2="50" y2="87" stroke="currentColor" stroke-width="2"/>
  <line x1="58" y1="50" x2="50" y2="87" stroke="currentColor" stroke-width="2"/>
  <line x1="65" y1="78" x2="50" y2="87" stroke="currentColor" stroke-width="2"/>
</svg>
